<?xml version="1.0" standalone="no"?><!DOCTYPE svg PUBLIC "-//W3C//DTD SVG 1.1//EN" "http://www.w3.org/Graphics/SVG/1.1/DTD/svg11.dtd"><svg t="1756814197359" class="icon" viewBox="0 0 1024 1024" version="1.1" xmlns="http://www.w3.org/2000/svg" p-id="10855" xmlns:xlink="http://www.w3.org/1999/xlink" width="200" height="200"><path d="M849.664 771.669333l-141.994667 141.994667A85.333333 85.333333 0 0 1 647.317333 938.666667H234.666667a85.333333 85.333333 0 0 1-85.333334-85.333334V170.666667a85.333333 85.333333 0 0 1 85.333334-85.333334h554.666666a85.333333 85.333333 0 0 1 85.333334 85.333334v540.650666a85.333333 85.333333 0 0 1-25.002667 60.352z m-45.248-45.269333c0.32-0.298667 0.426667-0.746667 0.725333-1.066667H682.666667a21.333333 21.333333 0 0 0-21.333334 21.333334v122.474666c0.32-0.298667 0.768-0.405333 1.066667-0.725333zM810.666667 170.666667a21.333333 21.333333 0 0 0-21.333334-21.333334H234.666667a21.333333 21.333333 0 0 0-21.333334 21.333334v682.666666a21.333333 21.333333 0 0 0 21.333334 21.333334h362.666666v-128a85.333333 85.333333 0 0 1 85.333334-85.333334h128V170.666667z" fill="#ffffff" p-id="10856"></path><path d="M672 384h-320a32 32 0 0 1 0-64h320a32 32 0 0 1 0 64z m-320 128h192a32 32 0 0 1 0 64h-192a32 32 0 0 1 0-64z" fill="#ffffff" p-id="10857"></path></svg>