<?xml version="1.0" standalone="no"?><!DOCTYPE svg PUBLIC "-//W3C//DTD SVG 1.1//EN" "http://www.w3.org/Graphics/SVG/1.1/DTD/svg11.dtd"><svg t="1756450071091" class="icon" viewBox="0 0 1024 1024" version="1.1" xmlns="http://www.w3.org/2000/svg" p-id="13110" xmlns:xlink="http://www.w3.org/1999/xlink" width="200" height="200"><path d="M866.986667 400.042667c-20.48 0-34.133333-13.653333-34.133334-34.133334v-170.666666c0-20.48-13.653333-34.133333-34.133333-34.133334H634.88c-20.48 0-34.133333-13.653333-34.133333-34.133333s13.653333-34.133333 34.133333-34.133333h163.84c54.613333 0 102.4 47.786667 102.4 102.4v170.666666c0 20.48-13.653333 34.133333-34.133333 34.133334z" fill="#2c2c2c" p-id="13111"></path><path d="M580.266667 208.896H375.466667c-40.96 0-68.266667-34.133333-68.266667-68.266667v-68.266666c0-40.96 27.306667-68.266667 68.266667-68.266667h204.8c40.96 0 68.266667 34.133333 68.266666 68.266667v68.266666c0 34.133333-27.306667 68.266667-68.266666 68.266667z m-204.8-136.533333v68.266666h204.8v-68.266666H375.466667z m0-34.133334v34.133334-34.133334z" fill="#2c2c2c" p-id="13112"></path><path d="M389.12 925.696H191.146667c-54.613333 0-102.4-47.786667-102.4-102.4v-628.053333c0-54.613333 47.786667-102.4 102.4-102.4h122.88c20.48 0 34.133333 13.653333 34.133333 34.133333s-13.653333 34.133333-34.133333 34.133333H191.146667c-20.48 0-34.133333 13.653333-34.133334 34.133334v628.053333c0 20.48 13.653333 34.133333 34.133334 34.133333h197.973333c20.48 0 34.133333 13.653333 34.133333 34.133334s-13.653333 34.133333-34.133333 34.133333z" fill="#2c2c2c" p-id="13113"></path><path d="M669.013333 331.776h-409.6c-20.48 0-34.133333-13.653333-34.133333-34.133333s13.653333-34.133333 34.133333-34.133334h409.6c20.48 0 34.133333 13.653333 34.133334 34.133334s-13.653333 34.133333-34.133334 34.133333zM477.866667 475.136H259.413333c-13.653333 0-34.133333-13.653333-34.133333-34.133333s20.48-34.133333 34.133333-34.133334h218.453334c20.48 0 34.133333 13.653333 34.133333 34.133334s-13.653333 34.133333-34.133333 34.133333z" fill="#2c2c2c" p-id="13114"></path><path d="M737.28 674.679467c27.306667-27.306667 40.96-61.44 40.96-102.4 0-75.093333-61.44-143.36-143.36-143.36s-136.533333 61.44-136.533333 143.36c0 40.96 20.48 75.093333 47.786666 102.4-95.573333 40.96-163.84 136.533333-163.84 245.76h54.613334c0-116.053333 95.573333-204.8 204.8-204.8s204.8 95.573333 204.8 204.8h54.613333c0-109.226667-68.266667-204.8-163.84-245.76z m-184.32-102.4c0-47.786667 40.96-88.746667 88.746667-88.746667s88.746667 40.96 88.746666 88.746667c0 47.786667-40.96 88.746667-88.746666 88.746666-47.786667 0-88.746667-40.96-88.746667-88.746666z" fill="#2c2c2c" p-id="13115"></path></svg>