<?xml version="1.0" standalone="no"?><!DOCTYPE svg PUBLIC "-//W3C//DTD SVG 1.1//EN" "http://www.w3.org/Graphics/SVG/1.1/DTD/svg11.dtd"><svg t="1756450458220" class="icon" viewBox="0 0 1024 1024" version="1.1" xmlns="http://www.w3.org/2000/svg" p-id="44739" xmlns:xlink="http://www.w3.org/1999/xlink" width="200" height="200"><path d="M701.3 1024c-16.8 0-33.1-6.9-43.6-18.5-14.3-15.7-59.8-56.6-97-56.6-36.9 0-83.1 41.1-96.3 55.5-10.5 11.4-26.7 18.2-43.3 18.2-7.9 0-15.4-1.5-22.2-4.5l-1.2-0.5-113-63.2-1.1-0.8c-20.6-14.4-28.4-42.6-18.2-65.5 0.1-0.2 10.4-24.1 10.4-45.8 0-66.1-53.7-119.8-119.8-119.8h-4.7c-18.9 0-34.3-16.8-39.3-42.8-0.4-2.1-9.7-51.4-9.7-90.3s9.3-88.2 9.7-90.3c5-26.4 20.7-43.3 40-42.8h4c66.1 0 119.8-53.8 119.8-119.8 0-21.7-10.3-45.6-10.4-45.9-10.2-23-2.3-51.1 18.4-65.5l1.2-0.8 119.3-65.5 1.2-0.5c6.7-2.9 14.1-4.3 21.9-4.3 16.6 0 32.8 6.7 43.4 17.8 14.1 14.8 58.8 53.2 94.9 53.2 35.8 0 80.1-37.7 94.2-52.2 10.5-10.9 26.6-17.5 43-17.5 8 0 15.5 1.5 22.3 4.5l1.2 0.5 115.2 64 1.1 0.8c20.6 14.4 28.5 42.6 18.3 65.5-0.1 0.2-10.4 24.1-10.4 45.8 0 66.1 53.8 119.8 119.8 119.8h4c19.2-0.4 35 16.5 40 42.8 0.4 2.1 9.7 51.4 9.7 90.3s-9.3 88.2-9.7 90.3c-5 26.4-20.8 43.2-40 42.8h-4c-66.1 0-119.8 53.8-119.8 119.8 0 21.8 10.3 45.6 10.4 45.9 10.2 22.9 2.3 51.1-18.3 65.5l-1.2 0.8-117.2 64.8-1.2 0.5c-6.7 2.8-14 4.3-21.8 4.3z m-3.5-55.2c0.5 0.4 2 0.9 3.6 0.9h0.2L811 909.2c-2.6-6.1-14.7-35.9-14.7-67 0-92.9 73.2-169.1 165-173.9 1.3-7.3 8.5-48.3 8.5-79.1s-7.2-71.8-8.5-79.1c-91.8-4.8-165-80.9-165-173.9 0-31.1 12.1-61 14.7-67l-107.7-59.8h-0.5c-1.8 0-3.5 0.7-4.1 1-1.8 1.9-17.4 17.7-39.8 33.5-33.2 23.4-64.6 35.2-93.3 35.2-29 0-60.6-12.1-94-35.9-22.6-16.1-38.2-32.2-40.1-34.1-0.6-0.4-2.3-1.1-4.2-1.1h-0.4l-111.5 61.3c2.7 6.2 14.7 35.9 14.7 67 0 93-73.2 169.1-165 173.9-1.3 7.3-8.5 48.3-8.5 79.1s7.2 71.8 8.5 79.1c91.8 4.8 165 80.9 165 173.9 0 31.2-12.2 61.1-14.8 67.1l105.6 59h0.2c1.2 0 2.4-0.3 3.5-0.9 2-2.1 17.7-18.8 40.5-35.5 33.8-24.8 66-37.4 95.6-37.4 29.9 0 62.3 12.8 96.3 38.1 23 16.9 38.8 34 40.8 36.1z" fill="#ffffff" p-id="44740"></path><path d="M563.2 748.4c-88 0-159.6-71.6-159.6-159.6s71.6-159.6 159.6-159.6 159.6 71.6 159.6 159.6c0 88.1-71.6 159.6-159.6 159.6z m0-264.8c-58 0-105.3 47.2-105.3 105.3s47.2 105.3 105.3 105.3c58.1 0 105.3-47.2 105.3-105.3s-47.2-105.3-105.3-105.3z" fill="#ffffff" p-id="44741"></path><path d="M650.2 921.5c-16.8 0-33.1-6.9-43.6-18.5-14.3-15.7-59.8-56.6-97-56.6-36.9 0-83.1 41.1-96.3 55.5-10.5 11.4-26.7 18.2-43.3 18.2-7.9 0-15.4-1.5-22.2-4.5l-1.2-0.5-113-63.2-1.1-0.8c-20.6-14.4-28.4-42.6-18.2-65.5 0.1-0.2 10.4-24.1 10.4-45.8 0-66.1-53.7-119.8-119.8-119.8h-4.7c-18.9 0-34.3-16.8-39.3-42.9-0.4-2.1-9.6-51.4-9.6-90.3s9.2-88.2 9.6-90.3c5-26.4 20.7-43.3 40-42.8h4c66.1 0 119.8-53.8 119.8-119.8 0-21.8-10.3-45.6-10.4-45.9-10.2-22.9-2.3-51.1 18.4-65.5l1.2-0.8 119.3-65.5 1.2-0.5c6.7-2.9 14.1-4.3 21.9-4.3 16.6 0 32.8 6.7 43.4 17.8 14.1 14.8 58.8 53.2 94.9 53.2 35.8 0 80.1-37.7 94.2-52.2 10.5-10.9 26.6-17.5 43-17.5 7.9 0 15.5 1.5 22.3 4.5l1.2 0.5 115.2 64 1.1 0.8c20.6 14.4 28.5 42.6 18.3 65.5-0.1 0.2-10.4 24.1-10.4 45.8 0 66.1 53.8 119.8 119.8 119.8h4c19.2-0.4 35 16.5 40 42.8 0.4 2.1 9.7 51.4 9.7 90.3s-9.3 88.2-9.7 90.3c-5 26.4-20.8 43.2-40 42.8h-4c-66.1 0-119.8 53.8-119.8 119.8 0 21.8 10.3 45.6 10.4 45.9 10.2 22.9 2.3 51.1-18.3 65.5l-1.2 0.8-117.2 64.7-1.2 0.5c-6.8 3.1-14.1 4.6-21.8 4.5z m-3.6-55.2c0.5 0.4 2 0.9 3.6 0.9h0.2l109.5-60.5c-2.6-6.1-14.7-35.9-14.7-67 0-92.9 73.2-169.1 165-173.9 1.3-7.3 8.5-48.3 8.5-79.1 0-30.8-7.2-71.8-8.5-79.1-91.8-4.8-165-80.9-165-173.9 0-31.1 12.1-61 14.7-67l-107.7-59.8h-0.5c-1.8 0-3.5 0.7-4.1 1.1-1.8 1.8-17.4 17.7-39.8 33.5-33.2 23.4-64.6 35.2-93.3 35.2-29 0-60.6-12.1-94-35.9-22.6-16.1-38.2-32.2-40.1-34.1-0.6-0.4-2.3-1.1-4.2-1.1h-0.4l-111.5 61.3c2.7 6.2 14.7 35.9 14.7 67 0 92.9-73.2 169.1-165 173.9-1.3 7.3-8.5 48.3-8.5 79.1 0 30.8 7.2 71.8 8.5 79.1 91.8 4.8 165 80.9 165 173.8 0 31.2-12.2 61.1-14.8 67.1l105.6 59h0.2c1.2 0 2.4-0.3 3.5-0.9 2-2.1 17.7-18.8 40.5-35.4 33.8-24.8 66-37.4 95.6-37.4 29.9 0 62.3 12.8 96.3 38.1 22.9 16.9 38.7 33.9 40.7 36z" fill="#ffffff" p-id="44742"></path><path d="M512 646c-88 0-159.6-71.6-159.6-159.6S424 326.8 512 326.8s159.6 71.6 159.6 159.6S600 646 512 646z m0-264.9c-58.1 0-105.3 47.2-105.3 105.3 0 58.1 47.2 105.3 105.3 105.3s105.3-47.2 105.3-105.3c0-58-47.2-105.3-105.3-105.3z" fill="#ffffff" p-id="44743"></path></svg>